<svg width="400" height="350" viewBox="0 0 400 350" fill="none" xmlns="http://www.w3.org/2000/svg">
<mask id="mask0_982_742" style="mask-type:luminance" maskUnits="userSpaceOnUse" x="0" y="0" width="400" height="350">
<path d="M399.762 0.252441H0V349.307H399.762V0.252441Z" fill="white"/>
</mask>
<g mask="url(#mask0_982_742)">
<mask id="mask1_982_742" style="mask-type:luminance" maskUnits="userSpaceOnUse" x="0" y="0" width="400" height="350">
<path d="M399.763 0.25293H0.000793457V349.307H399.763V0.25293Z" fill="white"/>
</mask>
<g mask="url(#mask1_982_742)">
<path d="M329.58 291.927L347.764 271.017V266.12H320.781V271.761H338.478L320.279 292.693V297.569H292.126L306.404 266.171H300.72L286.419 297.569H260.994V272.002H272.019V266.112H242.612V272.002H253.638V297.569H213.828L228.129 266.12H222.438L208.114 297.569H194.421V285.358C194.421 283.935 194.277 282.578 193.973 281.286C193.677 279.994 193.175 278.848 192.461 277.863C191.754 276.878 190.804 276.089 189.626 275.498C188.449 274.914 186.967 274.622 185.181 274.622C183.046 274.622 181.192 275.075 179.626 275.987C178.054 276.892 176.876 278.169 176.085 279.812V266.127H169.087V297.576H154.741C156.329 297.072 157.742 296.401 158.965 295.554C160.288 294.642 161.389 293.554 162.271 292.292C163.152 291.029 163.813 289.657 164.239 288.161L157.628 286.314C157.309 287.365 156.868 288.285 156.314 289.059C155.759 289.832 155.105 290.482 154.345 290.993C153.593 291.504 152.757 291.883 151.838 292.131C150.926 292.379 149.961 292.503 148.958 292.503C147.476 292.503 146.154 292.277 144.976 291.832C143.798 291.387 142.803 290.723 141.982 289.847C141.162 288.971 140.531 287.884 140.098 286.584C139.665 285.285 139.444 283.782 139.444 282.074C139.444 280.286 139.65 278.724 140.06 277.374C140.47 276.031 141.063 274.9 141.846 273.995C142.621 273.09 143.563 272.404 144.672 271.944C145.774 271.484 147.028 271.25 148.434 271.25C149.482 271.25 150.508 271.411 151.496 271.725C152.484 272.039 153.373 272.55 154.148 273.25C154.923 273.951 155.576 274.87 156.093 276.009C156.61 277.14 156.929 278.534 157.051 280.169L157.256 280.3L164.072 279.001C163.981 276.79 163.517 274.834 162.689 273.126C161.861 271.418 160.744 269.988 159.353 268.835C157.955 267.674 156.329 266.798 154.475 266.2C152.613 265.601 150.607 265.302 148.456 265.302C145.82 265.302 143.472 265.682 141.405 266.433C139.338 267.185 137.59 268.28 136.154 269.703C134.718 271.134 133.624 272.871 132.871 274.929C132.119 276.987 131.739 279.315 131.739 281.921C131.739 284.512 132.119 286.833 132.887 288.869C133.647 290.912 134.756 292.642 136.2 294.065C137.651 295.489 139.422 296.576 141.519 297.328C141.762 297.415 142.013 297.496 142.256 297.576H102.522L116.831 266.127H111.147L96.823 297.576H82.5906L69.5816 278.162L81.7472 266.127H73.1074L58.9053 280.315L59.0649 266.127H51.679V297.576V301.67H348.075V297.576V291.934H329.58V291.927ZM59.0725 297.569L58.9129 287.949L64.3764 282.767L74.2548 297.569H59.0725ZM176.139 291.898C176.139 290.818 176.359 289.978 176.693 289.051L176.724 288.949C177.377 287.351 178.122 285.782 178.973 284.278C179.718 282.957 180.751 281.84 182.126 281.045C184.414 279.724 186.891 281.381 187.126 283.213L187.21 283.672C187.339 284.446 187.408 285.263 187.408 286.11V297.576H176.093L176.139 291.898Z" fill="white"/>
</g>
<mask id="mask2_982_742" style="mask-type:luminance" maskUnits="userSpaceOnUse" x="0" y="0" width="400" height="350">
<path d="M399.763 0.25293H0.000793457V349.307H399.763V0.25293Z" fill="white"/>
</mask>
<g mask="url(#mask2_982_742)">
<path fill-rule="evenodd" clip-rule="evenodd" d="M163.594 230.715C163.525 230.649 163.381 230.518 162.165 227.934C157.857 218.84 154.703 210.068 153.062 200.164C151.466 190.544 152.37 182.042 153.761 172.481C154.316 168.642 154.703 166.598 154.916 165.292C155.129 163.985 155.159 163.416 155.159 162.964C155.159 162.511 155.129 162.175 153.921 160.234C152.72 158.293 150.342 154.738 147.188 149.279C144.035 143.82 140.091 136.448 136.588 128.778C126.504 106.715 123.564 84.053 126.383 60.2164C127.15 53.7354 128.51 47.8383 129.437 44.5905C130.364 41.3427 130.851 40.7369 131.284 40.3866C131.717 40.0363 132.105 39.9341 132.507 39.883C132.91 39.8319 133.328 39.8319 134.407 40.5034C135.486 41.1748 137.234 42.5104 140.532 46.1815C143.829 49.8526 148.677 55.8446 153.191 62.5446C157.705 69.2445 161.892 76.6524 165.676 84.3377C169.46 92.0229 172.841 100 175.265 107.955C177.689 115.911 179.156 123.851 179.977 128.573C180.797 133.295 180.972 134.806 181.177 135.945C181.39 137.083 181.633 137.857 181.891 138.404C182.15 138.959 182.431 139.295 182.872 139.477C183.305 139.66 183.898 139.696 184.688 139.594C185.471 139.492 186.451 139.258 188.632 138.857C190.812 138.455 194.194 137.886 196.116 137.602C198.008 137.324 201.793 137.324 203.685 137.602C205.6 137.886 208.989 138.455 211.169 138.857C213.35 139.258 214.323 139.492 215.113 139.594C215.896 139.696 216.489 139.66 216.929 139.477C217.362 139.295 217.644 138.959 217.902 138.404C218.168 137.85 218.411 137.083 218.616 135.945C218.829 134.806 219.004 133.295 219.817 128.573C220.637 123.851 222.104 115.911 224.528 107.955C226.952 100 230.333 92.0229 234.118 84.3377C237.902 76.6524 242.089 69.2445 246.602 62.5446C251.116 55.8446 255.964 49.8526 259.262 46.1815C262.56 42.5104 264.3 41.1748 265.386 40.5034C266.465 39.8319 266.883 39.8319 267.286 39.883C267.689 39.9341 268.069 40.0363 268.509 40.3866C268.943 40.7369 269.437 41.3427 270.356 44.5905C271.283 47.8383 272.643 53.7354 273.411 60.2164C276.23 84.0457 273.297 106.707 263.206 128.778C259.703 136.448 255.759 143.82 252.605 149.279C249.452 154.738 247.073 158.293 245.873 160.234C244.672 162.175 244.634 162.511 244.634 162.964C244.634 163.416 244.665 163.985 244.877 165.292C245.09 166.598 245.47 168.642 246.032 172.481C247.423 182.042 248.327 190.544 246.732 200.164C245.09 210.068 241.937 218.84 237.628 227.934C236.405 230.518 236.268 230.649 236.2 230.715C236.124 230.759 163.639 230.759 163.594 230.715Z" fill="white"/>
</g>
</g>
</svg>
